<?xml version="1.0" standalone="no"?>
<!DOCTYPE svg PUBLIC "-//W3C//DTD SVG 20010904//EN"
 "http://www.w3.org/TR/2001/REC-SVG-20010904/DTD/svg10.dtd">
<svg version="1.0" xmlns="http://www.w3.org/2000/svg"
 width="360.000000pt" height="500.000000pt" viewBox="0 0 394.000000 547.000000"
 preserveAspectRatio="xMidYMid meet">

<g transform="translate(0.000000,547.000000) scale(0.100000,-0.100000)"
fill="#000000" stroke="none">
<path d="M2231 5358 c-1 -20 -16 -24 -26 -8 -3 6 -17 10 -29 10 -23 0 -23 -1
-10 -37 19 -55 18 -65 -8 -58 -13 4 -28 14 -35 22 -16 20 -91 24 -98 5 -4 -10
-9 -11 -18 -5 -20 16 -56 22 -60 9 -2 -7 -19 -1 -43 17 -43 30 -59 19 -25 -17
15 -16 21 -33 19 -57 -3 -40 -29 -66 -76 -75 -38 -7 -49 -19 -24 -29 16 -6 16
-7 0 -16 -10 -6 -18 -16 -18 -24 0 -21 -104 -35 -166 -22 l-52 11 24 42 c23
42 23 42 4 67 -22 27 -17 37 31 57 22 9 21 10 -12 6 -54 -5 -64 -14 -122 -106
-31 -50 -68 -95 -90 -110 -20 -14 -49 -42 -64 -63 -23 -32 -25 -41 -15 -57 7
-11 12 -32 12 -47 0 -41 68 -123 99 -120 36 3 47 -23 31 -75 -7 -23 -18 -50
-24 -58 -22 -30 -36 -60 -36 -75 0 -16 -33 -70 -69 -115 -25 -30 -26 -61 -6
-100 9 -17 17 -51 20 -77 2 -27 7 -69 11 -94 5 -38 2 -54 -20 -95 -33 -63 -33
-74 3 -74 20 0 37 -9 55 -31 14 -17 26 -34 26 -39 0 -4 22 -24 50 -44 57 -41
69 -70 45 -116 -13 -24 -14 -38 -7 -59 20 -52 22 -201 5 -267 -20 -75 -10
-183 27 -277 26 -68 16 -95 -19 -51 -17 21 -20 35 -15 63 l7 35 -39 -41 c-26
-28 -51 -43 -77 -48 -45 -9 -51 -35 -7 -35 17 0 30 -4 30 -9 0 -12 -282 -20
-298 -8 -7 5 -28 7 -48 4 -44 -7 -84 7 -84 30 0 10 -9 42 -20 71 -11 29 -20
63 -20 77 0 14 -6 25 -12 25 -7 0 -20 4 -28 10 -12 7 -12 12 -1 34 13 23 11
28 -22 61 -21 21 -34 42 -30 50 3 9 -1 15 -10 15 -22 0 -26 30 -10 85 21 75
20 80 -5 83 -22 3 -23 7 -18 40 6 35 5 36 -9 18 -13 -18 -22 -83 -15 -111 2
-5 8 -31 14 -57 6 -25 14 -50 19 -54 4 -4 7 -37 7 -73 0 -59 28 -229 45 -273
4 -10 -2 -29 -15 -46 -18 -24 -22 -45 -24 -113 -1 -52 3 -94 11 -109 13 -24 9
-28 -71 -105 -84 -81 -116 -121 -116 -150 0 -23 15 -18 53 15 52 45 59 37 32
-35 -14 -36 -25 -75 -24 -88 0 -12 10 5 23 40 24 66 57 112 130 183 51 49 69
48 94 -3 7 -14 21 -29 32 -32 11 -4 22 -16 25 -28 2 -12 14 -67 24 -122 11
-55 36 -154 56 -220 19 -66 35 -129 35 -139 0 -11 -18 -38 -39 -61 -22 -22
-62 -76 -89 -120 -48 -78 -82 -106 -82 -68 0 10 6 28 14 39 8 11 20 49 26 85
7 35 17 81 22 101 11 38 6 68 -12 68 -5 0 -10 -7 -10 -15 0 -9 -11 -20 -24
-27 -35 -16 -59 10 -53 57 4 29 2 35 -13 35 -10 0 -23 7 -30 15 -11 14 -14 13
-27 -5 -8 -11 -19 -20 -24 -20 -13 0 -1 39 18 62 18 21 14 83 -6 83 -8 0 -27
-22 -42 -50 -40 -74 -81 -115 -107 -108 -28 7 -29 39 -2 53 12 6 20 21 20 35
0 28 -21 33 -40 10 -18 -22 -30 -19 -30 8 -1 21 -1 21 -12 2 -7 -11 -18 -26
-25 -33 -7 -7 -13 -18 -13 -23 0 -18 -53 -89 -66 -89 -7 0 -21 8 -31 19 -15
15 -41 28 -73 35 -5 1 -1 -93 6 -116 10 -33 -11 -18 -56 39 l-45 58 -7 -64
c-10 -88 -21 -94 -49 -27 -31 75 -54 77 -49 3 2 -36 -24 -45 -58 -20 -15 11
-39 22 -54 25 -24 5 -28 2 -28 -19 0 -32 -17 -63 -36 -63 -12 0 -14 -38 -12
-277 l3 -277 96 -17 c53 -9 137 -28 187 -43 99 -28 136 -31 227 -16 33 5 138
16 233 25 149 13 177 13 205 1 l32 -14 -33 -1 c-62 -2 -82 -26 -97 -115 -4
-21 -27 -76 -51 -121 -27 -50 -49 -107 -55 -143 -14 -80 -42 -126 -72 -118
-62 19 -97 18 -132 -3 -20 -11 -52 -21 -71 -21 -36 0 -94 24 -94 39 0 15 -73
82 -111 101 -21 11 -51 22 -68 25 -18 3 -60 12 -94 21 -34 9 -72 18 -84 21
-22 5 -23 3 -23 -75 l0 -81 38 -7 c129 -22 191 -46 238 -91 16 -16 49 -37 74
-47 25 -10 63 -26 85 -36 22 -10 72 -28 110 -41 74 -24 70 -24 525 -20 110 0
140 -10 140 -51 0 -22 2 -22 48 1 29 15 64 20 160 22 l124 4 32 -85 c40 -106
136 -296 188 -373 22 -32 76 -98 120 -148 l81 -90 311 3 c257 3 321 6 367 20
74 22 211 89 269 131 14 9 34 17 46 17 11 0 29 9 40 21 21 24 86 59 107 59 18
0 31 12 161 152 l108 118 144 0 c168 0 145 -18 211 169 23 68 50 132 58 141 9
10 14 31 13 50 -3 29 1 35 22 40 22 5 26 13 32 65 4 33 6 106 5 161 -1 62 3
107 9 115 7 8 14 61 16 119 3 58 10 116 16 130 30 72 37 151 37 400 l0 255
-34 70 c-33 70 -33 70 -27 181 5 101 4 114 -14 136 -11 14 -17 28 -14 31 9 9
-36 89 -79 139 -48 58 -86 71 -183 66 -63 -3 -72 -1 -58 9 10 7 24 13 31 13
23 0 13 14 -44 63 -52 44 -93 60 -93 37 0 -5 -9 -10 -19 -10 -36 0 -156 -63
-236 -124 -96 -74 -268 -231 -289 -265 -13 -20 -31 -43 -42 -51 -16 -14 -16
-12 2 20 24 44 162 182 277 278 48 41 99 92 113 114 17 26 40 46 70 60 25 11
43 25 41 31 -2 6 -26 17 -53 24 -85 23 -201 4 -254 -43 -9 -7 -42 -14 -75 -15
-50 -2 -66 3 -99 25 -27 18 -52 26 -82 26 -36 0 -51 6 -81 34 -21 18 -52 41
-70 49 -47 24 -74 64 -66 96 10 39 60 149 84 183 13 18 23 48 24 76 1 26 3 52
4 58 0 6 25 23 54 38 64 32 93 68 107 132 6 26 20 58 30 72 11 13 20 39 20 56
0 17 9 42 20 56 16 20 20 41 20 112 l0 87 35 28 c27 22 36 37 40 73 4 25 10
56 15 70 5 14 11 143 13 286 l4 261 -32 67 c-18 36 -55 90 -80 119 -26 28 -69
84 -96 123 -59 87 -109 129 -168 138 -24 4 -55 16 -69 27 -20 15 -38 20 -74
18 -38 -2 -55 2 -80 22 -50 38 -71 48 -97 49 -21 0 -23 -3 -17 -30 3 -16 1
-30 -4 -30 -12 0 -22 18 -30 54 -3 18 -12 31 -20 31 -8 0 -18 9 -22 20 -5 17
-6 17 -7 3z m-306 -661 c-8 -29 -24 -66 -34 -83 -16 -26 -24 -31 -46 -27 -18
4 -24 10 -21 20 3 8 6 23 6 34 0 11 10 23 24 28 23 9 36 29 36 57 0 9 8 26 18
39 16 22 17 22 25 3 4 -11 1 -42 -8 -71z m311 69 c11 -45 1 -69 -30 -73 -28
-4 -28 -3 -21 34 11 62 39 83 51 39z m-456 -42 c0 -8 -48 -54 -56 -54 -3 0 4
14 16 30 19 27 40 39 40 24z m-185 -535 l-4 -101 29 -11 c53 -20 51 -61 -3
-50 -61 12 -117 41 -111 58 10 24 -12 17 -51 -16 -40 -36 -43 -45 -15 -54 23
-7 27 -35 6 -35 -7 0 -19 7 -26 15 -7 9 -21 13 -31 10 -15 -5 -19 -1 -19 19 0
14 5 28 10 31 6 3 28 32 49 63 43 62 145 172 160 172 6 0 8 -41 6 -101z m-138
-1198 c96 -14 125 -42 213 -206 128 -239 202 -355 326 -516 208 -270 317 -400
445 -531 l66 -68 59 35 c77 47 111 56 229 62 73 4 119 1 169 -11 184 -43 398
-179 481 -305 24 -35 25 -43 15 -80 -6 -23 -17 -41 -24 -41 -22 0 -66 -40 -66
-59 0 -10 -11 -30 -25 -45 -14 -15 -25 -33 -25 -40 0 -8 -7 -19 -15 -26 -8 -7
-15 -21 -15 -31 0 -10 -9 -23 -20 -29 -11 -6 -26 -23 -35 -39 -8 -16 -28 -34
-45 -39 -18 -7 -30 -18 -30 -29 0 -20 -50 -53 -80 -53 -10 0 -20 -7 -24 -15
-3 -8 -14 -15 -25 -15 -11 0 -23 -5 -27 -11 -3 -6 -15 -8 -26 -6 -11 3 -34 -3
-51 -13 -18 -10 -57 -21 -88 -25 -51 -6 -62 -4 -120 27 -52 28 -73 34 -109 31
-25 -2 -96 -6 -159 -8 -62 -2 -126 -9 -143 -16 -22 -9 -32 -9 -41 0 -6 6 -25
11 -42 11 -16 0 -43 7 -59 15 -15 8 -46 15 -67 15 -21 0 -41 5 -44 10 -3 6
-15 10 -26 10 -12 0 -33 13 -47 30 -15 16 -31 30 -38 30 -9 0 -20 26 -40 98
-2 6 -11 12 -21 12 -22 0 -40 26 -48 74 -7 32 -15 41 -37 37 -12 -2 -9 14 4
27 9 9 6 12 -14 12 -19 0 -29 7 -34 23 -4 12 -16 32 -28 43 -12 12 -32 36 -46
53 -14 18 -37 45 -51 61 -14 16 -32 43 -39 60 -7 16 -17 30 -22 30 -5 0 -7 4
-3 9 3 5 -6 22 -19 36 -14 15 -24 32 -23 39 1 6 -6 10 -15 8 -9 -1 -19 2 -23
8 -3 5 -1 10 5 10 20 0 0 20 -34 34 -24 10 -35 22 -39 44 -4 18 -14 31 -26 35
-12 3 -21 13 -21 25 0 11 -7 22 -15 26 -8 3 -15 12 -15 19 0 16 -31 86 -61
136 -11 19 -22 55 -24 79 -2 25 -9 50 -14 55 -6 6 -11 22 -11 37 0 14 -7 38
-15 54 -8 15 -15 40 -15 53 0 14 -7 46 -15 72 -8 25 -24 89 -36 141 -11 52
-36 133 -56 180 -33 80 -34 87 -24 139 19 96 83 180 157 206 45 16 142 19 231
6z m-450 -63 c-2 -13 -4 -3 -4 22 0 25 2 35 4 23 2 -13 2 -33 0 -45z m2343
-191 c-110 -33 -260 -122 -260 -155 0 -10 71 -22 130 -22 20 0 72 9 115 20 91
23 103 24 87 8 -7 -7 -12 -20 -12 -30 0 -16 -3 -16 -20 -6 -15 9 -23 10 -28 2
-4 -6 -25 -14 -47 -18 -57 -10 -105 -26 -105 -36 0 -11 15 -16 100 -29 41 -7
83 -17 93 -22 10 -5 22 -7 28 -4 10 7 119 -26 176 -52 17 -8 34 -21 37 -29 5
-12 -3 -14 -42 -10 -26 3 -69 10 -97 15 -27 6 -51 8 -53 4 -9 -26 -27 -36
-103 -54 -210 -49 -375 -115 -301 -120 21 -1 -45 -15 -118 -23 -57 -7 -171
-62 -241 -117 -20 -16 -49 -29 -63 -29 -30 0 -30 0 -15 34 10 20 17 24 39 20
24 -5 86 17 100 35 3 4 34 23 70 43 36 20 90 55 120 78 30 22 79 53 110 68 50
24 67 27 175 28 118 2 195 18 195 43 0 16 -14 21 -122 41 -117 23 -200 25
-249 8 -70 -24 -176 -96 -263 -178 -50 -47 -76 -67 -58 -45 18 22 64 81 102
131 37 50 109 135 160 187 77 81 109 106 201 157 119 67 146 78 199 79 27 0
19 -5 -40 -22z m165 -208 c7 -7 1 -8 -20 -3 -46 11 -67 26 -25 19 19 -3 39
-10 45 -16z m-234 -333 c-9 -10 -20 -12 -44 -6 -18 5 -41 11 -52 13 -11 3 9 5
44 6 53 1 62 -1 52 -13z m70 -56 c13 -7 19 -21 19 -43 0 -34 -53 -204 -69
-220 -5 -5 -25 -4 -46 2 -33 9 -40 8 -56 -12 -25 -30 -33 -57 -20 -70 13 -13
44 11 37 30 -3 7 -1 13 3 13 13 0 19 -23 14 -52 -3 -17 -10 -25 -18 -22 -7 3
-16 1 -20 -5 -3 -6 1 -11 9 -11 9 0 16 -4 16 -9 0 -15 -18 -23 -25 -11 -4 6
-10 8 -15 5 -4 -3 -52 9 -106 26 -117 36 -239 47 -339 30 -72 -13 -178 -53
-206 -78 -15 -13 -17 -11 -15 15 1 33 89 138 160 191 53 40 63 75 19 65 -16
-3 -41 -10 -56 -16 -33 -13 -44 -6 -23 15 9 8 25 13 36 10 11 -3 32 0 48 6 15
6 54 15 87 20 33 5 86 19 119 31 75 27 233 41 306 27 93 -17 144 -15 148 6 2
11 -6 28 -17 38 -31 29 -27 38 10 19z m-91 -280 c12 -8 11 -10 -7 -10 -12 0
-25 5 -28 10 -8 13 15 13 35 0z m-2019 -237 c0 -5 2 -18 5 -30 2 -13 -1 -23
-7 -23 -5 0 -8 4 -4 9 3 5 1 12 -5 16 -13 8 -13 35 0 35 6 0 10 -3 11 -7z m19
-113 c-18 -11 -22 -7 -14 14 5 13 10 14 18 6 8 -8 7 -13 -4 -20z m10 -61 c0
-6 -4 -7 -10 -4 -5 3 -10 11 -10 16 0 6 5 7 10 4 6 -3 10 -11 10 -16z m1370
-569 c0 -5 -8 -10 -17 -10 -15 0 -16 2 -3 10 19 12 20 12 20 0z"/>
<path d="M3033 2524 c-13 -14 -23 -28 -23 -32 0 -4 -9 -13 -20 -20 -28 -17
-26 -36 2 -21 33 18 65 51 73 77 8 28 -4 27 -32 -4z"/>
<path d="M1590 5290 c0 -5 4 -10 9 -10 6 0 13 5 16 10 3 6 -1 10 -9 10 -9 0
-16 -4 -16 -10z"/>
<path d="M990 3295 c0 -9 6 -12 15 -9 8 4 15 10 15 15 0 5 -7 9 -15 9 -8 0
-15 -7 -15 -15z"/>
<path d="M480 2583 c-72 -49 -129 -107 -155 -158 -15 -31 -25 -58 -22 -61 3
-3 15 11 25 33 21 39 90 109 155 157 53 38 50 66 -3 29z"/>
<path d="M907 2397 c-7 -20 18 -43 28 -27 4 7 1 19 -7 27 -14 13 -16 13 -21 0z"/>
</g>
</svg>
