<svg xmlns="http://www.w3.org/2000/svg" width="100" height="54" viewBox="0 0 100 54" fill="none">
  <path d="M99.3885 53.4619C99.6646 53.466 99.8917 53.2455 99.8958 52.9694L99.9625 48.4699C99.9666 48.1937 99.7461 47.9666 99.47 47.9625C99.1939 47.9584 98.9667 48.1789 98.9626 48.455L98.9033 52.4546L94.9038 52.3953C94.6277 52.3912 94.4005 52.6117 94.3964 52.8878C94.3923 53.1639 94.6128 53.3911 94.889 53.3952L99.3885 53.4619ZM55.6686 7.91836L55.3098 8.26663L55.6686 7.91836ZM0.393016 1.07992L19.9949 17.5657L20.6385 16.8004L1.03667 0.314608L0.393016 1.07992ZM34.7318 16.3558L41.2748 8.70797L40.5149 8.05789L33.9719 15.7057L34.7318 16.3558ZM55.3098 8.26663L99.0371 53.3102L99.7546 52.6137L56.0273 7.57009L55.3098 8.26663ZM41.2748 8.70797C44.911 4.45782 51.4138 4.25333 55.3098 8.26663L56.0273 7.57009C51.7212 3.13433 44.5339 3.36035 40.5149 8.05789L41.2748 8.70797ZM19.9949 17.5657C24.4065 21.276 30.9844 20.736 34.7318 16.3558L33.9719 15.7057C30.5814 19.6687 24.63 20.1573 20.6385 16.8004L19.9949 17.5657Z" fill="#8EA5FA"/>
</svg>